<svg width="21" height="22" viewBox="0 0 21 22" fill="none" xmlns="http://www.w3.org/2000/svg">
<path d="M13.8329 7.29C13.7399 7.19627 13.6293 7.12188 13.5075 7.07111C13.3856 7.02034 13.2549 6.9942 13.1229 6.9942C12.9909 6.9942 12.8602 7.02034 12.7383 7.07111C12.6164 7.12188 12.5058 7.19627 12.4129 7.29L10.1229 9.59L7.83288 7.29C7.64458 7.1017 7.38918 6.99591 7.12288 6.99591C6.85658 6.99591 6.60119 7.1017 6.41288 7.29C6.22458 7.4783 6.11879 7.7337 6.11879 8C6.11879 8.2663 6.22458 8.5217 6.41288 8.71L8.71288 11L6.41288 13.29C6.31915 13.383 6.24476 13.4936 6.19399 13.6154C6.14322 13.7373 6.11708 13.868 6.11708 14C6.11708 14.132 6.14322 14.2627 6.19399 14.3846C6.24476 14.5064 6.31915 14.617 6.41288 14.71C6.50585 14.8037 6.61645 14.8781 6.73831 14.9289C6.86016 14.9797 6.99087 15.0058 7.12288 15.0058C7.25489 15.0058 7.3856 14.9797 7.50746 14.9289C7.62932 14.8781 7.73992 14.8037 7.83288 14.71L10.1229 12.41L12.4129 14.71C12.5058 14.8037 12.6164 14.8781 12.7383 14.9289C12.8602 14.9797 12.9909 15.0058 13.1229 15.0058C13.2549 15.0058 13.3856 14.9797 13.5075 14.9289C13.6293 14.8781 13.7399 14.8037 13.8329 14.71C13.9266 14.617 14.001 14.5064 14.0518 14.3846C14.1025 14.2627 14.1287 14.132 14.1287 14C14.1287 13.868 14.1025 13.7373 14.0518 13.6154C14.001 13.4936 13.9266 13.383 13.8329 13.29L11.5329 11L13.8329 8.71C13.9266 8.61704 14.001 8.50643 14.0518 8.38458C14.1025 8.26272 14.1287 8.13201 14.1287 8C14.1287 7.86799 14.1025 7.73728 14.0518 7.61542C14.001 7.49356 13.9266 7.38296 13.8329 7.29ZM17.1929 3.93C16.2704 2.9749 15.167 2.21308 13.9469 1.68899C12.7269 1.1649 11.4147 0.889033 10.0869 0.877495C8.7591 0.865957 7.44231 1.11897 6.21334 1.62178C4.98438 2.12459 3.86786 2.86712 2.92893 3.80605C1.99001 4.74498 1.24747 5.8615 0.744665 7.09046C0.241856 8.31942 -0.0111606 9.63622 0.000377568 10.964C0.0119157 12.2918 0.287778 13.604 0.811868 14.824C1.33596 16.0441 2.09778 17.1475 3.05288 18.07C3.97535 19.0251 5.0788 19.7869 6.29884 20.311C7.51888 20.8351 8.83108 21.111 10.1589 21.1225C11.4867 21.134 12.8035 20.881 14.0324 20.3782C15.2614 19.8754 16.3779 19.1329 17.3168 18.194C18.2558 17.255 18.9983 16.1385 19.5011 14.9095C20.0039 13.6806 20.2569 12.3638 20.2454 11.036C20.2339 9.70819 19.958 8.39599 19.4339 7.17595C18.9098 5.95591 18.148 4.85247 17.1929 3.93ZM15.7829 16.66C14.4749 17.9694 12.7534 18.7848 10.9117 18.9673C9.06993 19.1498 7.22189 18.6881 5.6824 17.6608C4.14292 16.6335 3.00724 15.1042 2.46886 13.3335C1.93047 11.5628 2.02269 9.66014 2.7298 7.94978C3.4369 6.23943 4.71516 4.82715 6.34677 3.95356C7.97839 3.07998 9.86242 2.79913 11.6779 3.15887C13.4934 3.51862 15.1279 4.49669 16.3031 5.92646C17.4783 7.35623 18.1214 9.14924 18.1229 11C18.1265 12.0513 17.9215 13.0928 17.5198 14.0644C17.1182 15.0359 16.5278 15.9181 15.7829 16.66Z" fill="#667085"/>
</svg>
